<?xml version="1.0" encoding="utf-8"?>
<!-- Generator: Adobe Illustrator 16.0.0, SVG Export Plug-In . SVG Version: 6.00 Build 0)  -->
<!DOCTYPE svg PUBLIC "-//W3C//DTD SVG 1.1//EN" "http://www.w3.org/Graphics/SVG/1.1/DTD/svg11.dtd">
<svg version="1.1" id="Layer_1" xmlns="http://www.w3.org/2000/svg" xmlns:xlink="http://www.w3.org/1999/xlink" x="0px" y="0px"
	 width="100px" height="100px" viewBox="0 0 100 100" enable-background="new 0 0 100 100" xml:space="preserve">
<g>
	<path fill="#FFFFFF" d="M78.016,64.132L51.961,27.714c-0.471-0.66-1.232-1.049-2.043-1.051c-0.006,0-0.006,0-0.006,0
		c-0.815,0.002-1.575,0.396-2.048,1.059L21.977,64.141c-0.546,0.767-0.616,1.775-0.183,2.611c0.426,0.835,1.292,1.361,2.236,1.361
		c0,0,3.987,0.1,4.183,0c0.243-0.124,44.572,0.001,44.572,0.001h3.188c0.939,0,1.803-0.53,2.236-1.367
		C78.641,65.911,78.566,64.9,78.016,64.132z"/>
</g>
</svg>
