<?xml version="1.0" encoding="utf-8"?>
<!-- Generator: Adobe Illustrator 16.0.0, SVG Export Plug-In . SVG Version: 6.00 Build 0)  -->
<!DOCTYPE svg PUBLIC "-//W3C//DTD SVG 1.1//EN" "http://www.w3.org/Graphics/SVG/1.1/DTD/svg11.dtd">
<svg version="1.1" id="Layer_1" xmlns="http://www.w3.org/2000/svg" xmlns:xlink="http://www.w3.org/1999/xlink" x="0px" y="0px"
	 width="100px" height="100px" viewBox="0 0 100 100" enable-background="new 0 0 100 100" xml:space="preserve">
<path fill="#FFFFFF" d="M84.438,39.721H60.273V15.563c0-1.001-0.812-1.812-1.812-1.813H41.536c-1.001,0-1.812,0.812-1.812,1.813
	l-0.001,24.16l-24.159-0.001c-0.961,0-1.812,0.851-1.813,1.813V58.46c-0.001,0.481,0.191,0.942,0.531,1.282
	c0.339,0.339,0.801,0.531,1.282,0.529h24.16v24.166c0,0.479,0.191,0.941,0.531,1.281c0.34,0.34,0.802,0.531,1.282,0.531H58.46
	c0.479,0,0.942-0.191,1.284-0.533c0.338-0.338,0.529-0.8,0.529-1.279V60.273l24.162-0.002c0.5,0,0.953-0.201,1.282-0.529
	c0.329-0.329,0.531-0.782,0.531-1.283l0.001-16.925C86.25,40.533,85.439,39.722,84.438,39.721z"/>
</svg>
