<?xml version="1.0" encoding="utf-8"?>
<!-- Generator: Adobe Illustrator 16.0.0, SVG Export Plug-In . SVG Version: 6.00 Build 0)  -->
<!DOCTYPE svg PUBLIC "-//W3C//DTD SVG 1.1//EN" "http://www.w3.org/Graphics/SVG/1.1/DTD/svg11.dtd">
<svg version="1.1" id="Layer_1" xmlns="http://www.w3.org/2000/svg" xmlns:xlink="http://www.w3.org/1999/xlink" x="0px" y="0px"
	 width="100px" height="100px" viewBox="0 0 100 100" enable-background="new 0 0 100 100" xml:space="preserve">
<g>
	<path fill="#FFFFFF" d="M76.587,22.655l-0.043,0.043c-0.39-0.363-0.909-0.59-1.483-0.59c-0.554,0-1.053,0.212-1.438,0.551
		l-0.001-0.004l-0.09,0.08c-0.007,0.006-0.013,0.01-0.019,0.016l-4.123,3.632c-0.031,0.029-0.066,0.055-0.098,0.086l-0.008,0.006
		l0.001,0.001c-0.382,0.394-0.619,0.928-0.619,1.52c0,0.778,0.411,1.457,1.024,1.844c4.863,4.973,7.869,11.77,7.869,19.257
		c0,15.196-12.362,27.559-27.561,27.559c-15.199,0-27.561-12.362-27.561-27.559c0-7.561,3.062-14.42,8.01-19.406l-0.048-0.048
		c0.464-0.4,0.765-0.986,0.765-1.647c0-0.591-0.237-1.126-0.619-1.52l0.001-0.001l-0.008-0.006
		c-0.031-0.031-0.066-0.057-0.098-0.086l-4.123-3.632c-0.006-0.006-0.013-0.01-0.018-0.016l-0.09-0.08l-0.001,0.004
		c-0.385-0.339-0.884-0.551-1.437-0.551c-0.809,0-1.508,0.445-1.885,1.1C16.458,29.94,12.5,39.054,12.5,49.097
		c0,20.709,16.788,37.498,37.5,37.498s37.5-16.788,37.5-37.498C87.5,38.78,83.331,29.435,76.587,22.655z"/>
	<path fill="#FFFFFF" d="M47.203,62.732L47.203,62.732h0.003h0.001h0.001h5.585l0,0c0.001,0,0.002,0,0.003,0
		c1.206,0,2.185-0.978,2.185-2.184l0,0l0,0V15.594h-0.002c0,0,0.002-0.004,0.002-0.005c0-1.206-0.979-2.184-2.185-2.184
		c-0.001,0-0.002,0-0.003,0l0,0h-5.589l0,0c-1.204,0.002-2.181,0.979-2.181,2.184c0,0.001,0.001,0.003,0.001,0.003l-0.001,0.002
		v44.955l0,0l0,0C45.023,61.755,45.999,62.73,47.203,62.732z"/>
</g>
</svg>
